inDegrees=yes
name=ik_Xsens_quaternion
DataType=double
version=3
OpenSimVersion=4.4-2022-07-23-0e9fedc
endheader
time	pelvis_tilt	pelvis_list	pelvis_rotation	pelvis_tx	pelvis_ty	pelvis_tz	hip_flexion_r	hip_adduction_r	hip_rotation_r	knee_angle_r	knee_angle_r_beta	ankle_angle_r	subtalar_angle_r	mtp_angle_r	hip_flexion_l	hip_adduction_l	hip_rotation_l	knee_angle_l	knee_angle_l_beta	ankle_angle_l	subtalar_angle_l	mtp_angle_l	lumbar_extension	lumbar_bending	lumbar_rotation	arm_flex_r	arm_add_r	arm_rot_r	elbow_flex_r	pro_sup_r	wrist_flex_r	wrist_dev_r	arm_flex_l	arm_add_l	arm_rot_l	elbow_flex_l	pro_sup_l	wrist_flex_l	wrist_dev_l
0	0	0	0	0	0.93	0	4.594144125593695e-49	0	0	2.426570649309934e-20	-5.241540515187501e-23	0	0	0	4.594144125593695e-49	0	0	2.426570649309934e-20	-5.241540515187501e-23	0	0	0	0	0	0	0	0	0	0	0	0	0	0.0001464018723251184	-0.0001744875704968576	-47.32749397561805	0.000111452131617138	0	0	0
0.01666666666666667	0	0	0	0	0.93	0	0	0	0	0	-7.862310772781252e-23	0	0	0	0	0	0	0	-7.862310772781252e-23	0	0	0	0	0	0	0	0	0	0	0	0	0	-0.01198172441914482	-0.09201341144794967	-47.32262587479849	-0.08478454649615841	0	0	0
0.03333333333333333	0	0	0	0	0.93	0	4.594144125593695e-49	0	0	2.426570649309934e-20	8.071972393388596e-23	0	0	0	4.594144125593695e-49	0	0	2.426570649309934e-20	8.071972393388596e-23	0	0	0	0	0	0	0	0	0	0	0	0	0	-4.177216132408384e-05	-0.1236253349903947	-47.38625189599039	-0.1603808817736059	0	0	0
0.05	-2.820980757828576e-26	-2.048157423949991e-17	1.97928589933327e-26	-2.139401025859749e-19	0.93	1.722860171185019e-18	-1.187924538674789e-34	7.236361198186194e-37	-3.358536056362181e-26	0	-7.934137138221151e-18	3.451108423142415e-16	-2.151170032332034e-16	-3.681298718589925e-17	1.233154356610033e-16	1.468148622471868e-15	1.338498419057092e-16	0	1.073451762836144e-16	-4.494405543650226e-15	-3.932986849744319e-16	9.795189253965918e-18	-2.119911846361925e-15	2.16691456714045e-15	-3.147565163753553e-15	2.350067758678917e-17	2.961879137826525e-17	-1.069547412063746e-17	-9.692798132471222e-18	2.691882614826188e-17	3.218768684536873e-15	2.982441510722706e-15	0.003779442222062423	-0.07006770659657363	-47.44546380706181	-0.1197356959883124	-3.394678080410815e-17	4.781713491874834e-17	-1.131698931424591e-15
0.06666666666666667	0	0	0	0	0.93	0	0	0	0	0	-6.234686691023458e-23	0	0	0	0	0	0	0	7.50067700378745e-23	0	0	0	0	0	0	2.350067758678917e-17	2.961879137826525e-17	-1.069547412063746e-17	-9.692798132471222e-18	2.691882614826188e-17	0	0	0.04613970717573792	-0.01053537198129847	-47.49720993004332	-0.09114881265797885	-3.394678080410815e-17	0	0
0.08333333333333333	0	0	-6.034637516865448e-34	0	0.93	0	1.331226768721682e-35	0	0	2.426570649309934e-20	-6.234686691023457e-23	-1.454778687101492e-34	0	0	1.331226768721682e-35	0	0	2.426570649309934e-20	7.500677003787451e-23	-1.454778687101492e-34	0	0	0	0	-6.034637516865448e-34	2.350067758678917e-17	2.961879137826525e-17	-1.069547412063746e-17	-9.692798132471222e-18	2.691882614826188e-17	0	-5.388069211487007e-36	0.1162659277538279	0.0395974718613081	-47.53100777550586	-0.06300536961457827	-3.394678080410815e-17	0	-5.388069211487007e-36
0.1	0	0	-5.974297115993953e-38	0	0.93	0	1.312822592027592e-35	0	0	2.426570649309934e-20	9.622489428466652e-23	5.37366688808238e-36	0	0	1.312822592027592e-35	0	0	2.426570649309934e-20	2.182029441920061e-23	5.37366688808238e-36	0	0	0	0	-5.974297115993953e-38	2.350067758678917e-17	2.961879137826525e-17	-1.069547412063746e-17	-9.692798132471222e-18	2.691882614826188e-17	0	1.508609688831392e-34	0.1997479499736922	0.08337095912121133	-47.54469150907186	-0.04273114196361984	-3.394678080410815e-17	0	1.508609688831392e-34
0.1166666666666667	-1.992843771647456e-32	1.176754315788763e-32	-5.914560059394174e-42	0	0.93	0	-2.025142351818214e-35	0	0	2.426570649309934e-20	4.456831546918022e-23	5.319935539136937e-40	0	0	-2.025142351818214e-35	0	0	2.426570649309934e-20	-2.98362843962857e-23	5.319935539136937e-40	0	0	-1.992843771647456e-32	1.176754315788763e-32	-5.914560059394174e-42	2.350067758678917e-17	2.961879137826525e-17	-1.069547412063746e-17	-9.692798132471222e-18	2.691882614826188e-17	0	1.493525085468187e-38	0.2909897350424556	0.1344545710338296	-47.53627266850831	-0.02732671707652306	-3.394678080410815e-17	0	1.493525085468187e-38
0.1333333333333333	-1.97291730684833e-36	1.164987937618839e-36	-8.276074308844629e-33	0	0.93	0	-1.400343245547013e-36	0	0	2.426570649309934e-20	-7.207320687569735e-24	5.266741450487106e-44	0	0	-1.400343245547013e-36	0	0	2.426570649309934e-20	-8.161192055303565e-23	5.266741450487106e-44	0	0	-1.97291730684833e-36	1.164987937618839e-36	-8.276074308844629e-33	2.350067758678917e-17	2.961879137826525e-17	-1.069547412063746e-17	-9.692798132471222e-18	2.691882614826188e-17	0	-5.388067732895694e-36	0.3862656833064813	0.1921039599126915	-47.51451802401365	-0.01183402359834711	-3.394678080410815e-17	0	-5.388067732895694e-36
0.15	-1.810391450378643e-33	1.153339211581887e-40	-8.193321759078064e-37	0	0.93	0	1.604777872198981e-34	0	0	2.426570649309934e-20	4.444768485599514e-23	5.214079250061588e-48	0	0	1.604777872198981e-34	0	0	2.426570649309934e-20	-2.995691500947077e-23	5.214079250061588e-48	0	0	-1.810391450378643e-33	1.153339211581887e-40	-8.193321759078064e-37	2.350067758678917e-17	2.961879137826525e-17	-1.069547412063746e-17	-9.692798132471222e-18	2.691882614826188e-17	0	-1.508664713408752e-34	0.4767349775207174	0.2450609398306826	-47.50055171839553	0.005644889706976799	-3.394678080410815e-17	0	-1.508664713408752e-34
0.1666666666666667	-1.792289328164193e-37	1.14180696127304e-44	-8.111396652883863e-41	0	0.93	0	-1.327763716197315e-35	0	0	2.426570649309934e-20	4.444768485599514e-23	5.161943619504675e-52	0	0	-1.327763716197315e-35	0	0	2.426570649309934e-20	-2.995691500947077e-23	5.161943619504675e-52	0	0	-1.792289328164193e-37	1.14180696127304e-44	-8.111396652883863e-41	2.350067758678917e-17	2.961879137826525e-17	-1.069547412063746e-17	-9.692798132471222e-18	2.691882614826188e-17	0	-1.079107421857256e-35	0.5655366870849247	0.2897171278727482	-47.48350567180046	0.02502321930560658	-3.394678080410815e-17	0	-1.079107421857256e-35
